<svg xmlns="http://www.w3.org/2000/svg" xmlns:xlink="http://www.w3.org/1999/xlink" width="500" zoomAndPan="magnify" viewBox="0 0 375 374.999991" height="500" preserveAspectRatio="xMidYMid meet" version="1.0"><defs><g/><clipPath id="013494040c"><rect x="0" width="31" y="0" height="308"/></clipPath></defs><g transform="matrix(1, 0, 0, 1, 172, 33)"><g clip-path="url(#013494040c)"><g fill="#ffffff" fill-opacity="1"><g transform="translate(2.830401, 36.807982)"><g><path d="M 15.09375 0.375 C 12.351562 0.375 10.007812 -0.175781 8.0625 -1.28125 C 6.113281 -2.382812 4.617188 -3.945312 3.578125 -5.96875 C 2.535156 -8 2.015625 -10.394531 2.015625 -13.15625 C 2.015625 -15.207031 2.3125 -17.054688 2.90625 -18.703125 C 3.5 -20.359375 4.351562 -21.773438 5.46875 -22.953125 C 6.59375 -24.140625 7.96875 -25.050781 9.59375 -25.6875 C 11.21875 -26.320312 13.050781 -26.640625 15.09375 -26.640625 C 16.457031 -26.640625 17.796875 -26.460938 19.109375 -26.109375 C 20.421875 -25.765625 21.578125 -25.269531 22.578125 -24.625 C 23.097656 -24.300781 23.441406 -23.910156 23.609375 -23.453125 C 23.785156 -22.992188 23.820312 -22.546875 23.71875 -22.109375 C 23.625 -21.671875 23.421875 -21.300781 23.109375 -21 C 22.796875 -20.707031 22.410156 -20.539062 21.953125 -20.5 C 21.492188 -20.46875 20.992188 -20.625 20.453125 -20.96875 C 19.679688 -21.46875 18.847656 -21.828125 17.953125 -22.046875 C 17.054688 -22.273438 16.148438 -22.390625 15.234375 -22.390625 C 13.472656 -22.390625 11.984375 -22.03125 10.765625 -21.3125 C 9.546875 -20.59375 8.625 -19.546875 8 -18.171875 C 7.382812 -16.804688 7.078125 -15.132812 7.078125 -13.15625 C 7.078125 -11.1875 7.382812 -9.503906 8 -8.109375 C 8.625 -6.722656 9.546875 -5.671875 10.765625 -4.953125 C 11.984375 -4.234375 13.472656 -3.875 15.234375 -3.875 C 16.179688 -3.875 17.113281 -3.988281 18.03125 -4.21875 C 18.945312 -4.457031 19.816406 -4.828125 20.640625 -5.328125 C 21.179688 -5.648438 21.671875 -5.789062 22.109375 -5.75 C 22.546875 -5.71875 22.910156 -5.5625 23.203125 -5.28125 C 23.503906 -5.007812 23.703125 -4.671875 23.796875 -4.265625 C 23.898438 -3.859375 23.875 -3.4375 23.71875 -3 C 23.570312 -2.5625 23.273438 -2.179688 22.828125 -1.859375 C 21.835938 -1.140625 20.648438 -0.585938 19.265625 -0.203125 C 17.890625 0.179688 16.5 0.375 15.09375 0.375 Z M 15.09375 0.375 "/></g></g></g><g fill="#ffffff" fill-opacity="1"><g transform="translate(0.868868, 73.423271)"><g><path d="M 14.640625 0.375 C 12.109375 0.375 9.890625 -0.179688 7.984375 -1.296875 C 6.085938 -2.421875 4.617188 -3.992188 3.578125 -6.015625 C 2.535156 -8.035156 2.015625 -10.414062 2.015625 -13.15625 C 2.015625 -15.207031 2.3125 -17.054688 2.90625 -18.703125 C 3.5 -20.359375 4.347656 -21.773438 5.453125 -22.953125 C 6.554688 -24.140625 7.882812 -25.050781 9.4375 -25.6875 C 10.988281 -26.320312 12.722656 -26.640625 14.640625 -26.640625 C 17.191406 -26.640625 19.410156 -26.082031 21.296875 -24.96875 C 23.191406 -23.863281 24.660156 -22.304688 25.703125 -20.296875 C 26.742188 -18.285156 27.265625 -15.914062 27.265625 -13.1875 C 27.265625 -11.125 26.96875 -9.257812 26.375 -7.59375 C 25.78125 -5.9375 24.925781 -4.507812 23.8125 -3.3125 C 22.707031 -2.125 21.378906 -1.210938 19.828125 -0.578125 C 18.273438 0.0546875 16.546875 0.375 14.640625 0.375 Z M 14.640625 -3.71875 C 16.253906 -3.71875 17.625 -4.085938 18.75 -4.828125 C 19.882812 -5.578125 20.753906 -6.660156 21.359375 -8.078125 C 21.972656 -9.492188 22.28125 -11.1875 22.28125 -13.15625 C 22.28125 -16.132812 21.613281 -18.441406 20.28125 -20.078125 C 18.957031 -21.710938 17.078125 -22.53125 14.640625 -22.53125 C 13.046875 -22.53125 11.675781 -22.164062 10.53125 -21.4375 C 9.394531 -20.707031 8.519531 -19.640625 7.90625 -18.234375 C 7.300781 -16.828125 7 -15.132812 7 -13.15625 C 7 -10.195312 7.671875 -7.882812 9.015625 -6.21875 C 10.359375 -4.550781 12.234375 -3.71875 14.640625 -3.71875 Z M 14.640625 -3.71875 "/></g></g></g><g fill="#ffffff" fill-opacity="1"><g transform="translate(1.563577, 110.038561)"><g><path d="M 5.109375 0.296875 C 4.378906 0.296875 3.820312 0.0976562 3.4375 -0.296875 C 3.0625 -0.691406 2.875 -1.265625 2.875 -2.015625 L 2.875 -24.171875 C 2.875 -24.941406 3.0625 -25.53125 3.4375 -25.9375 C 3.820312 -26.351562 4.328125 -26.5625 4.953125 -26.5625 C 5.523438 -26.5625 5.953125 -26.453125 6.234375 -26.234375 C 6.523438 -26.023438 6.867188 -25.675781 7.265625 -25.1875 L 21.53125 -6.671875 L 20.5625 -6.671875 L 20.5625 -24.28125 C 20.5625 -25.007812 20.753906 -25.570312 21.140625 -25.96875 C 21.523438 -26.363281 22.078125 -26.5625 22.796875 -26.5625 C 23.515625 -26.5625 24.0625 -26.363281 24.4375 -25.96875 C 24.8125 -25.570312 25 -25.007812 25 -24.28125 L 25 -1.9375 C 25 -1.238281 24.820312 -0.691406 24.46875 -0.296875 C 24.125 0.0976562 23.65625 0.296875 23.0625 0.296875 C 22.488281 0.296875 22.03125 0.1875 21.6875 -0.03125 C 21.351562 -0.257812 20.988281 -0.625 20.59375 -1.125 L 6.375 -19.625 L 7.296875 -19.625 L 7.296875 -2.015625 C 7.296875 -1.265625 7.109375 -0.691406 6.734375 -0.296875 C 6.367188 0.0976562 5.828125 0.296875 5.109375 0.296875 Z M 5.109375 0.296875 "/></g></g></g><g fill="#ffffff" fill-opacity="1"><g transform="translate(3.933763, 146.653851)"><g><path d="M 11.578125 0.296875 C 10.816406 0.296875 10.226562 0.0820312 9.8125 -0.34375 C 9.40625 -0.78125 9.203125 -1.382812 9.203125 -2.15625 L 9.203125 -22.28125 L 1.9375 -22.28125 C 1.289062 -22.28125 0.785156 -22.457031 0.421875 -22.8125 C 0.0664062 -23.175781 -0.109375 -23.664062 -0.109375 -24.28125 C -0.109375 -24.925781 0.0664062 -25.414062 0.421875 -25.75 C 0.785156 -26.09375 1.289062 -26.265625 1.9375 -26.265625 L 21.234375 -26.265625 C 21.878906 -26.265625 22.378906 -26.09375 22.734375 -25.75 C 23.097656 -25.414062 23.28125 -24.925781 23.28125 -24.28125 C 23.28125 -23.664062 23.097656 -23.175781 22.734375 -22.8125 C 22.378906 -22.457031 21.878906 -22.28125 21.234375 -22.28125 L 13.96875 -22.28125 L 13.96875 -2.15625 C 13.96875 -1.382812 13.769531 -0.78125 13.375 -0.34375 C 12.976562 0.0820312 12.378906 0.296875 11.578125 0.296875 Z M 11.578125 0.296875 "/></g></g></g><g fill="#ffffff" fill-opacity="1"><g transform="translate(2.728238, 183.269141)"><g><path d="M 5.25 0.296875 C 4.476562 0.296875 3.890625 0.0820312 3.484375 -0.34375 C 3.078125 -0.78125 2.875 -1.382812 2.875 -2.15625 L 2.875 -23.84375 C 2.875 -24.632812 3.082031 -25.234375 3.5 -25.640625 C 3.925781 -26.054688 4.523438 -26.265625 5.296875 -26.265625 L 14.265625 -26.265625 C 17.148438 -26.265625 19.375 -25.570312 20.9375 -24.1875 C 22.5 -22.8125 23.28125 -20.882812 23.28125 -18.40625 C 23.28125 -16.789062 22.925781 -15.398438 22.21875 -14.234375 C 21.507812 -13.066406 20.484375 -12.171875 19.140625 -11.546875 C 17.804688 -10.921875 16.179688 -10.609375 14.265625 -10.609375 L 14.609375 -11.171875 L 15.828125 -11.171875 C 16.847656 -11.171875 17.734375 -10.921875 18.484375 -10.421875 C 19.242188 -9.929688 19.910156 -9.148438 20.484375 -8.078125 L 23.28125 -2.90625 C 23.582031 -2.382812 23.71875 -1.875 23.6875 -1.375 C 23.664062 -0.882812 23.476562 -0.484375 23.125 -0.171875 C 22.78125 0.140625 22.273438 0.296875 21.609375 0.296875 C 20.929688 0.296875 20.378906 0.15625 19.953125 -0.125 C 19.535156 -0.414062 19.164062 -0.859375 18.84375 -1.453125 L 15.09375 -8.375 C 14.644531 -9.21875 14.113281 -9.78125 13.5 -10.0625 C 12.894531 -10.351562 12.117188 -10.5 11.171875 -10.5 L 7.640625 -10.5 L 7.640625 -2.15625 C 7.640625 -1.382812 7.4375 -0.78125 7.03125 -0.34375 C 6.632812 0.0820312 6.039062 0.296875 5.25 0.296875 Z M 7.640625 -14.046875 L 13.453125 -14.046875 C 15.160156 -14.046875 16.453125 -14.398438 17.328125 -15.109375 C 18.210938 -15.816406 18.65625 -16.878906 18.65625 -18.296875 C 18.65625 -19.679688 18.210938 -20.726562 17.328125 -21.4375 C 16.453125 -22.144531 15.160156 -22.5 13.453125 -22.5 L 7.640625 -22.5 Z M 7.640625 -14.046875 "/></g></g></g><g fill="#ffffff" fill-opacity="1"><g transform="translate(0.868868, 219.884431)"><g><path d="M 14.640625 0.375 C 12.109375 0.375 9.890625 -0.179688 7.984375 -1.296875 C 6.085938 -2.421875 4.617188 -3.992188 3.578125 -6.015625 C 2.535156 -8.035156 2.015625 -10.414062 2.015625 -13.15625 C 2.015625 -15.207031 2.3125 -17.054688 2.90625 -18.703125 C 3.5 -20.359375 4.347656 -21.773438 5.453125 -22.953125 C 6.554688 -24.140625 7.882812 -25.050781 9.4375 -25.6875 C 10.988281 -26.320312 12.722656 -26.640625 14.640625 -26.640625 C 17.191406 -26.640625 19.410156 -26.082031 21.296875 -24.96875 C 23.191406 -23.863281 24.660156 -22.304688 25.703125 -20.296875 C 26.742188 -18.285156 27.265625 -15.914062 27.265625 -13.1875 C 27.265625 -11.125 26.96875 -9.257812 26.375 -7.59375 C 25.78125 -5.9375 24.925781 -4.507812 23.8125 -3.3125 C 22.707031 -2.125 21.378906 -1.210938 19.828125 -0.578125 C 18.273438 0.0546875 16.546875 0.375 14.640625 0.375 Z M 14.640625 -3.71875 C 16.253906 -3.71875 17.625 -4.085938 18.75 -4.828125 C 19.882812 -5.578125 20.753906 -6.660156 21.359375 -8.078125 C 21.972656 -9.492188 22.28125 -11.1875 22.28125 -13.15625 C 22.28125 -16.132812 21.613281 -18.441406 20.28125 -20.078125 C 18.957031 -21.710938 17.078125 -22.53125 14.640625 -22.53125 C 13.046875 -22.53125 11.675781 -22.164062 10.53125 -21.4375 C 9.394531 -20.707031 8.519531 -19.640625 7.90625 -18.234375 C 7.300781 -16.828125 7 -15.132812 7 -13.15625 C 7 -10.195312 7.671875 -7.882812 9.015625 -6.21875 C 10.359375 -4.550781 12.234375 -3.71875 14.640625 -3.71875 Z M 14.640625 -3.71875 "/></g></g></g><g fill="#ffffff" fill-opacity="1"><g transform="translate(5.037126, 256.499721)"><g><path d="M 5.296875 0 C 4.523438 0 3.925781 -0.210938 3.5 -0.640625 C 3.082031 -1.078125 2.875 -1.679688 2.875 -2.453125 L 2.875 -23.953125 C 2.875 -24.742188 3.078125 -25.34375 3.484375 -25.75 C 3.890625 -26.164062 4.476562 -26.375 5.25 -26.375 C 6.019531 -26.375 6.609375 -26.164062 7.015625 -25.75 C 7.429688 -25.34375 7.640625 -24.742188 7.640625 -23.953125 L 7.640625 -4.0625 L 18.4375 -4.0625 C 19.101562 -4.0625 19.617188 -3.882812 19.984375 -3.53125 C 20.347656 -3.1875 20.53125 -2.691406 20.53125 -2.046875 C 20.53125 -1.398438 20.347656 -0.894531 19.984375 -0.53125 C 19.617188 -0.175781 19.101562 0 18.4375 0 Z M 5.296875 0 "/></g></g></g><g fill="#ffffff" fill-opacity="1"><g transform="translate(3.74987, 293.11501)"><g><path d="M 11.921875 0.375 C 10.828125 0.375 9.734375 0.289062 8.640625 0.125 C 7.546875 -0.03125 6.515625 -0.273438 5.546875 -0.609375 C 4.578125 -0.953125 3.707031 -1.367188 2.9375 -1.859375 C 2.488281 -2.160156 2.175781 -2.519531 2 -2.9375 C 1.832031 -3.363281 1.78125 -3.78125 1.84375 -4.1875 C 1.90625 -4.601562 2.066406 -4.960938 2.328125 -5.265625 C 2.585938 -5.578125 2.914062 -5.769531 3.3125 -5.84375 C 3.707031 -5.914062 4.144531 -5.804688 4.625 -5.515625 C 5.71875 -4.867188 6.867188 -4.394531 8.078125 -4.09375 C 9.296875 -3.800781 10.578125 -3.65625 11.921875 -3.65625 C 13.878906 -3.65625 15.304688 -3.984375 16.203125 -4.640625 C 17.097656 -5.296875 17.546875 -6.144531 17.546875 -7.1875 C 17.546875 -8.0625 17.226562 -8.742188 16.59375 -9.234375 C 15.957031 -9.734375 14.867188 -10.144531 13.328125 -10.46875 L 9.234375 -11.328125 C 6.878906 -11.816406 5.125 -12.648438 3.96875 -13.828125 C 2.8125 -15.015625 2.234375 -16.578125 2.234375 -18.515625 C 2.234375 -19.734375 2.476562 -20.835938 2.96875 -21.828125 C 3.46875 -22.816406 4.171875 -23.671875 5.078125 -24.390625 C 5.984375 -25.117188 7.0625 -25.675781 8.3125 -26.0625 C 9.570312 -26.445312 10.960938 -26.640625 12.484375 -26.640625 C 13.972656 -26.640625 15.382812 -26.453125 16.71875 -26.078125 C 18.0625 -25.703125 19.269531 -25.15625 20.34375 -24.4375 C 20.738281 -24.164062 21.003906 -23.828125 21.140625 -23.421875 C 21.273438 -23.023438 21.304688 -22.632812 21.234375 -22.25 C 21.160156 -21.863281 20.984375 -21.535156 20.703125 -21.265625 C 20.429688 -20.992188 20.09375 -20.832031 19.6875 -20.78125 C 19.28125 -20.738281 18.816406 -20.863281 18.296875 -21.15625 C 17.367188 -21.675781 16.429688 -22.046875 15.484375 -22.265625 C 14.546875 -22.492188 13.53125 -22.609375 12.4375 -22.609375 C 11.300781 -22.609375 10.320312 -22.445312 9.5 -22.125 C 8.675781 -21.800781 8.046875 -21.347656 7.609375 -20.765625 C 7.179688 -20.179688 6.96875 -19.492188 6.96875 -18.703125 C 6.96875 -17.804688 7.265625 -17.085938 7.859375 -16.546875 C 8.453125 -16.015625 9.472656 -15.601562 10.921875 -15.3125 L 14.96875 -14.453125 C 17.425781 -13.929688 19.257812 -13.109375 20.46875 -11.984375 C 21.675781 -10.867188 22.28125 -9.382812 22.28125 -7.53125 C 22.28125 -6.332031 22.035156 -5.25 21.546875 -4.28125 C 21.066406 -3.3125 20.375 -2.476562 19.46875 -1.78125 C 18.5625 -1.09375 17.472656 -0.5625 16.203125 -0.1875 C 14.929688 0.1875 13.503906 0.375 11.921875 0.375 Z M 11.921875 0.375 "/></g></g></g></g></g></svg>