<svg xmlns="http://www.w3.org/2000/svg" xmlns:xlink="http://www.w3.org/1999/xlink" width="500" zoomAndPan="magnify" viewBox="0 0 375 374.999991" height="500" preserveAspectRatio="xMidYMid meet" version="1.0"><defs><g/><clipPath id="66112ee066"><rect x="0" width="34" y="0" height="309"/></clipPath></defs><g transform="matrix(1, 0, 0, 1, 170, 33)"><g clip-path="url(#66112ee066)"><g fill="#ffffff" fill-opacity="1"><g transform="translate(1.593776, 42.737624)"><g><path d="M 6.046875 0 C 5.128906 0 4.425781 -0.238281 3.9375 -0.71875 C 3.457031 -1.207031 3.21875 -1.914062 3.21875 -2.84375 L 3.21875 -26.578125 C 3.21875 -27.492188 3.457031 -28.191406 3.9375 -28.671875 C 4.425781 -29.160156 5.128906 -29.40625 6.046875 -29.40625 L 14.140625 -29.40625 C 19.066406 -29.40625 22.867188 -28.140625 25.546875 -25.609375 C 28.234375 -23.078125 29.578125 -19.453125 29.578125 -14.734375 C 29.578125 -12.367188 29.234375 -10.273438 28.546875 -8.453125 C 27.867188 -6.628906 26.867188 -5.085938 25.546875 -3.828125 C 24.234375 -2.578125 22.625 -1.625 20.71875 -0.96875 C 18.8125 -0.320312 16.617188 0 14.140625 0 Z M 8.546875 -4.421875 L 13.8125 -4.421875 C 15.53125 -4.421875 17.019531 -4.632812 18.28125 -5.0625 C 19.550781 -5.5 20.609375 -6.140625 21.453125 -6.984375 C 22.304688 -7.835938 22.941406 -8.910156 23.359375 -10.203125 C 23.773438 -11.492188 23.984375 -13.003906 23.984375 -14.734375 C 23.984375 -18.179688 23.132812 -20.75 21.4375 -22.4375 C 19.75 -24.132812 17.207031 -24.984375 13.8125 -24.984375 L 8.546875 -24.984375 Z M 8.546875 -4.421875 "/></g></g></g><g fill="#ffffff" fill-opacity="1"><g transform="translate(5.039782, 84.462237)"><g><path d="M 6.046875 0 C 5.128906 0 4.425781 -0.238281 3.9375 -0.71875 C 3.457031 -1.207031 3.21875 -1.914062 3.21875 -2.84375 L 3.21875 -26.578125 C 3.21875 -27.492188 3.457031 -28.191406 3.9375 -28.671875 C 4.425781 -29.160156 5.128906 -29.40625 6.046875 -29.40625 L 20.9375 -29.40625 C 21.632812 -29.40625 22.171875 -29.222656 22.546875 -28.859375 C 22.921875 -28.503906 23.109375 -27.992188 23.109375 -27.328125 C 23.109375 -26.628906 22.921875 -26.09375 22.546875 -25.71875 C 22.171875 -25.34375 21.632812 -25.15625 20.9375 -25.15625 L 8.34375 -25.15625 L 8.34375 -17.0625 L 20.03125 -17.0625 C 20.75 -17.0625 21.285156 -16.878906 21.640625 -16.515625 C 22.003906 -16.160156 22.1875 -15.632812 22.1875 -14.9375 C 22.1875 -14.238281 22.003906 -13.707031 21.640625 -13.34375 C 21.285156 -12.988281 20.75 -12.8125 20.03125 -12.8125 L 8.34375 -12.8125 L 8.34375 -4.25 L 20.9375 -4.25 C 21.632812 -4.25 22.171875 -4.066406 22.546875 -3.703125 C 22.921875 -3.347656 23.109375 -2.820312 23.109375 -2.125 C 23.109375 -1.425781 22.921875 -0.894531 22.546875 -0.53125 C 22.171875 -0.175781 21.632812 0 20.9375 0 Z M 6.046875 0 "/></g></g></g><g fill="#ffffff" fill-opacity="1"><g transform="translate(4.53918, 126.18685)"><g><path d="M 12.96875 0.328125 C 12.113281 0.328125 11.453125 0.0859375 10.984375 -0.390625 C 10.523438 -0.878906 10.296875 -1.554688 10.296875 -2.421875 L 10.296875 -24.953125 L 2.171875 -24.953125 C 1.441406 -24.953125 0.875 -25.148438 0.46875 -25.546875 C 0.0703125 -25.953125 -0.125 -26.503906 -0.125 -27.203125 C -0.125 -27.921875 0.0703125 -28.46875 0.46875 -28.84375 C 0.875 -29.21875 1.441406 -29.40625 2.171875 -29.40625 L 23.78125 -29.40625 C 24.5 -29.40625 25.0625 -29.21875 25.46875 -28.84375 C 25.875 -28.46875 26.078125 -27.921875 26.078125 -27.203125 C 26.078125 -26.503906 25.875 -25.953125 25.46875 -25.546875 C 25.0625 -25.148438 24.5 -24.953125 23.78125 -24.953125 L 15.640625 -24.953125 L 15.640625 -2.421875 C 15.640625 -1.554688 15.414062 -0.878906 14.96875 -0.390625 C 14.53125 0.0859375 13.863281 0.328125 12.96875 0.328125 Z M 12.96875 0.328125 "/></g></g></g><g fill="#ffffff" fill-opacity="1"><g transform="translate(1.966317, 167.911463)"><g><path d="M 3.5 0.328125 C 2.832031 0.328125 2.296875 0.175781 1.890625 -0.125 C 1.492188 -0.425781 1.253906 -0.832031 1.171875 -1.34375 C 1.085938 -1.863281 1.179688 -2.445312 1.453125 -3.09375 L 12.46875 -27.5 C 12.832031 -28.300781 13.269531 -28.875 13.78125 -29.21875 C 14.300781 -29.570312 14.894531 -29.75 15.5625 -29.75 C 16.195312 -29.75 16.769531 -29.570312 17.28125 -29.21875 C 17.800781 -28.875 18.242188 -28.300781 18.609375 -27.5 L 29.65625 -3.09375 C 29.96875 -2.445312 30.082031 -1.859375 30 -1.328125 C 29.914062 -0.804688 29.675781 -0.398438 29.28125 -0.109375 C 28.894531 0.179688 28.382812 0.328125 27.75 0.328125 C 26.96875 0.328125 26.359375 0.140625 25.921875 -0.234375 C 25.492188 -0.609375 25.113281 -1.179688 24.78125 -1.953125 L 22.0625 -8.265625 L 24.328125 -6.796875 L 6.71875 -6.796875 L 8.96875 -8.265625 L 6.296875 -1.953125 C 5.929688 -1.148438 5.554688 -0.566406 5.171875 -0.203125 C 4.785156 0.148438 4.226562 0.328125 3.5 0.328125 Z M 15.484375 -23.609375 L 9.640625 -9.71875 L 8.546875 -11.0625 L 22.484375 -11.0625 L 21.4375 -9.71875 L 15.5625 -23.609375 Z M 15.484375 -23.609375 "/></g></g></g><g fill="#ffffff" fill-opacity="1"><g transform="translate(11.605821, 209.636076)"><g><path d="M 5.875 0.328125 C 5.019531 0.328125 4.363281 0.0859375 3.90625 -0.390625 C 3.445312 -0.878906 3.21875 -1.554688 3.21875 -2.421875 L 3.21875 -26.984375 C 3.21875 -27.878906 3.445312 -28.5625 3.90625 -29.03125 C 4.363281 -29.507812 5.019531 -29.75 5.875 -29.75 C 6.738281 -29.75 7.398438 -29.507812 7.859375 -29.03125 C 8.316406 -28.5625 8.546875 -27.878906 8.546875 -26.984375 L 8.546875 -2.421875 C 8.546875 -1.554688 8.320312 -0.878906 7.875 -0.390625 C 7.4375 0.0859375 6.769531 0.328125 5.875 0.328125 Z M 5.875 0.328125 "/></g></g></g><g fill="#ffffff" fill-opacity="1"><g transform="translate(5.761581, 251.360689)"><g><path d="M 5.921875 0 C 5.054688 0 4.390625 -0.238281 3.921875 -0.71875 C 3.453125 -1.207031 3.21875 -1.882812 3.21875 -2.75 L 3.21875 -26.828125 C 3.21875 -27.710938 3.445312 -28.382812 3.90625 -28.84375 C 4.363281 -29.300781 5.019531 -29.53125 5.875 -29.53125 C 6.738281 -29.53125 7.398438 -29.300781 7.859375 -28.84375 C 8.316406 -28.382812 8.546875 -27.710938 8.546875 -26.828125 L 8.546875 -4.546875 L 20.65625 -4.546875 C 21.40625 -4.546875 21.976562 -4.347656 22.375 -3.953125 C 22.78125 -3.566406 22.984375 -3.015625 22.984375 -2.296875 C 22.984375 -1.566406 22.78125 -1 22.375 -0.59375 C 21.976562 -0.195312 21.40625 0 20.65625 0 Z M 5.921875 0 "/></g></g></g><g fill="#ffffff" fill-opacity="1"><g transform="translate(4.329626, 293.085302)"><g><path d="M 13.34375 0.421875 C 12.125 0.421875 10.898438 0.328125 9.671875 0.140625 C 8.453125 -0.0351562 7.300781 -0.3125 6.21875 -0.6875 C 5.132812 -1.0625 4.160156 -1.523438 3.296875 -2.078125 C 2.796875 -2.421875 2.445312 -2.828125 2.25 -3.296875 C 2.050781 -3.765625 1.988281 -4.226562 2.0625 -4.6875 C 2.132812 -5.144531 2.316406 -5.546875 2.609375 -5.890625 C 2.898438 -6.242188 3.265625 -6.460938 3.703125 -6.546875 C 4.148438 -6.628906 4.640625 -6.503906 5.171875 -6.171875 C 6.398438 -5.453125 7.691406 -4.925781 9.046875 -4.59375 C 10.410156 -4.257812 11.84375 -4.09375 13.34375 -4.09375 C 15.539062 -4.09375 17.140625 -4.457031 18.140625 -5.1875 C 19.148438 -5.925781 19.65625 -6.878906 19.65625 -8.046875 C 19.65625 -9.023438 19.296875 -9.789062 18.578125 -10.34375 C 17.867188 -10.90625 16.65625 -11.363281 14.9375 -11.71875 L 10.34375 -12.6875 C 7.707031 -13.238281 5.738281 -14.175781 4.4375 -15.5 C 3.144531 -16.820312 2.5 -18.566406 2.5 -20.734375 C 2.5 -22.097656 2.773438 -23.332031 3.328125 -24.4375 C 3.890625 -25.550781 4.675781 -26.507812 5.6875 -27.3125 C 6.707031 -28.125 7.921875 -28.742188 9.328125 -29.171875 C 10.734375 -29.609375 12.28125 -29.828125 13.96875 -29.828125 C 15.644531 -29.828125 17.234375 -29.617188 18.734375 -29.203125 C 20.234375 -28.785156 21.582031 -28.175781 22.78125 -27.375 C 23.226562 -27.0625 23.523438 -26.679688 23.671875 -26.234375 C 23.828125 -25.796875 23.863281 -25.359375 23.78125 -24.921875 C 23.695312 -24.492188 23.5 -24.125 23.1875 -23.8125 C 22.882812 -23.507812 22.503906 -23.332031 22.046875 -23.28125 C 21.585938 -23.226562 21.066406 -23.367188 20.484375 -23.703125 C 19.453125 -24.285156 18.40625 -24.703125 17.34375 -24.953125 C 16.289062 -25.203125 15.15625 -25.328125 13.9375 -25.328125 C 12.65625 -25.328125 11.554688 -25.144531 10.640625 -24.78125 C 9.722656 -24.414062 9.019531 -23.90625 8.53125 -23.25 C 8.039062 -22.601562 7.796875 -21.832031 7.796875 -20.9375 C 7.796875 -19.9375 8.128906 -19.132812 8.796875 -18.53125 C 9.460938 -17.9375 10.601562 -17.472656 12.21875 -17.140625 L 16.765625 -16.1875 C 19.523438 -15.601562 21.578125 -14.6875 22.921875 -13.4375 C 24.273438 -12.1875 24.953125 -10.515625 24.953125 -8.421875 C 24.953125 -7.085938 24.679688 -5.878906 24.140625 -4.796875 C 23.597656 -3.710938 22.816406 -2.78125 21.796875 -2 C 20.785156 -1.21875 19.566406 -0.617188 18.140625 -0.203125 C 16.722656 0.210938 15.125 0.421875 13.34375 0.421875 Z M 13.34375 0.421875 "/></g></g></g></g></g></svg>