<svg xmlns="http://www.w3.org/2000/svg" xmlns:xlink="http://www.w3.org/1999/xlink" width="500" zoomAndPan="magnify" viewBox="0 0 375 374.999991" height="500" preserveAspectRatio="xMidYMid meet" version="1.0"><defs><g/><clipPath id="c316b0bc2e"><rect x="0" width="18" y="0" height="309"/></clipPath></defs><g transform="matrix(1, 0, 0, 1, 179, 33)"><g clip-path="url(#c316b0bc2e)"><g fill="#ffffff" fill-opacity="1"><g transform="translate(1.166156, 22.498118)"><g><path d="M 3.015625 0.171875 C 2.566406 0.171875 2.222656 0.046875 1.984375 -0.203125 C 1.753906 -0.453125 1.640625 -0.796875 1.640625 -1.234375 L 1.640625 -13.671875 C 1.640625 -14.128906 1.757812 -14.472656 2 -14.703125 C 2.25 -14.941406 2.59375 -15.0625 3.03125 -15.0625 L 8.1875 -15.0625 C 9.832031 -15.0625 11.101562 -14.664062 12 -13.875 C 12.894531 -13.082031 13.34375 -11.972656 13.34375 -10.546875 C 13.34375 -9.617188 13.140625 -8.820312 12.734375 -8.15625 C 12.328125 -7.488281 11.738281 -6.976562 10.96875 -6.625 C 10.207031 -6.269531 9.28125 -6.09375 8.1875 -6.09375 L 8.375 -6.40625 L 9.078125 -6.40625 C 9.660156 -6.40625 10.164062 -6.257812 10.59375 -5.96875 C 11.03125 -5.6875 11.414062 -5.242188 11.75 -4.640625 L 13.34375 -1.671875 C 13.519531 -1.367188 13.597656 -1.070312 13.578125 -0.78125 C 13.566406 -0.5 13.460938 -0.269531 13.265625 -0.09375 C 13.066406 0.0820312 12.773438 0.171875 12.390625 0.171875 C 12.003906 0.171875 11.6875 0.0859375 11.4375 -0.078125 C 11.195312 -0.242188 10.988281 -0.492188 10.8125 -0.828125 L 8.65625 -4.8125 C 8.394531 -5.289062 8.085938 -5.609375 7.734375 -5.765625 C 7.390625 -5.929688 6.945312 -6.015625 6.40625 -6.015625 L 4.375 -6.015625 L 4.375 -1.234375 C 4.375 -0.796875 4.257812 -0.453125 4.03125 -0.203125 C 3.800781 0.046875 3.460938 0.171875 3.015625 0.171875 Z M 4.375 -8.046875 L 7.703125 -8.046875 C 8.691406 -8.046875 9.4375 -8.25 9.9375 -8.65625 C 10.445312 -9.0625 10.703125 -9.671875 10.703125 -10.484375 C 10.703125 -11.285156 10.445312 -11.890625 9.9375 -12.296875 C 9.4375 -12.703125 8.691406 -12.90625 7.703125 -12.90625 L 4.375 -12.90625 Z M 4.375 -8.046875 "/></g></g></g><g fill="#ffffff" fill-opacity="1"><g transform="translate(2.119927, 43.862585)"><g><path d="M 3.09375 0 C 2.625 0 2.265625 -0.125 2.015625 -0.375 C 1.765625 -0.625 1.640625 -0.984375 1.640625 -1.453125 L 1.640625 -13.609375 C 1.640625 -14.078125 1.765625 -14.4375 2.015625 -14.6875 C 2.265625 -14.9375 2.625 -15.0625 3.09375 -15.0625 L 10.71875 -15.0625 C 11.070312 -15.0625 11.34375 -14.96875 11.53125 -14.78125 C 11.726562 -14.59375 11.828125 -14.328125 11.828125 -13.984375 C 11.828125 -13.628906 11.726562 -13.351562 11.53125 -13.15625 C 11.34375 -12.96875 11.070312 -12.875 10.71875 -12.875 L 4.265625 -12.875 L 4.265625 -8.734375 L 10.25 -8.734375 C 10.625 -8.734375 10.898438 -8.640625 11.078125 -8.453125 C 11.265625 -8.273438 11.359375 -8.003906 11.359375 -7.640625 C 11.359375 -7.285156 11.265625 -7.015625 11.078125 -6.828125 C 10.898438 -6.648438 10.625 -6.5625 10.25 -6.5625 L 4.265625 -6.5625 L 4.265625 -2.171875 L 10.71875 -2.171875 C 11.070312 -2.171875 11.34375 -2.078125 11.53125 -1.890625 C 11.726562 -1.710938 11.828125 -1.445312 11.828125 -1.09375 C 11.828125 -0.738281 11.726562 -0.46875 11.53125 -0.28125 C 11.34375 -0.09375 11.070312 0 10.71875 0 Z M 3.09375 0 "/></g></g></g><g fill="#ffffff" fill-opacity="1"><g transform="translate(1.231728, 65.227053)"><g><path d="M 8.65625 0.21875 C 7.082031 0.21875 5.738281 -0.0976562 4.625 -0.734375 C 3.507812 -1.367188 2.648438 -2.265625 2.046875 -3.421875 C 1.453125 -4.585938 1.15625 -5.960938 1.15625 -7.546875 C 1.15625 -8.722656 1.320312 -9.785156 1.65625 -10.734375 C 2 -11.679688 2.488281 -12.492188 3.125 -13.171875 C 3.769531 -13.847656 4.5625 -14.363281 5.5 -14.71875 C 6.4375 -15.082031 7.488281 -15.265625 8.65625 -15.265625 C 9.4375 -15.265625 10.203125 -15.164062 10.953125 -14.96875 C 11.710938 -14.769531 12.375 -14.488281 12.9375 -14.125 C 13.238281 -13.9375 13.4375 -13.707031 13.53125 -13.4375 C 13.632812 -13.175781 13.65625 -12.921875 13.59375 -12.671875 C 13.539062 -12.421875 13.425781 -12.210938 13.25 -12.046875 C 13.070312 -11.878906 12.851562 -11.78125 12.59375 -11.75 C 12.332031 -11.726562 12.039062 -11.820312 11.71875 -12.03125 C 11.28125 -12.3125 10.804688 -12.515625 10.296875 -12.640625 C 9.785156 -12.773438 9.265625 -12.84375 8.734375 -12.84375 C 7.722656 -12.84375 6.867188 -12.632812 6.171875 -12.21875 C 5.472656 -11.800781 4.945312 -11.203125 4.59375 -10.421875 C 4.238281 -9.640625 4.0625 -8.679688 4.0625 -7.546875 C 4.0625 -6.421875 4.238281 -5.457031 4.59375 -4.65625 C 4.945312 -3.851562 5.472656 -3.242188 6.171875 -2.828125 C 6.867188 -2.421875 7.722656 -2.21875 8.734375 -2.21875 C 9.273438 -2.21875 9.804688 -2.285156 10.328125 -2.421875 C 10.859375 -2.554688 11.359375 -2.765625 11.828125 -3.046875 C 12.140625 -3.234375 12.421875 -3.316406 12.671875 -3.296875 C 12.921875 -3.273438 13.128906 -3.1875 13.296875 -3.03125 C 13.472656 -2.875 13.585938 -2.675781 13.640625 -2.4375 C 13.703125 -2.207031 13.691406 -1.96875 13.609375 -1.71875 C 13.523438 -1.46875 13.351562 -1.25 13.09375 -1.0625 C 12.519531 -0.65625 11.835938 -0.335938 11.046875 -0.109375 C 10.265625 0.109375 9.46875 0.21875 8.65625 0.21875 Z M 8.65625 0.21875 "/></g></g></g><g fill="#ffffff" fill-opacity="1"><g transform="translate(0.111047, 86.59152)"><g><path d="M 8.390625 0.21875 C 6.941406 0.21875 5.671875 -0.0976562 4.578125 -0.734375 C 3.492188 -1.378906 2.648438 -2.28125 2.046875 -3.4375 C 1.453125 -4.601562 1.15625 -5.972656 1.15625 -7.546875 C 1.15625 -8.722656 1.320312 -9.785156 1.65625 -10.734375 C 2 -11.679688 2.488281 -12.492188 3.125 -13.171875 C 3.757812 -13.847656 4.519531 -14.363281 5.40625 -14.71875 C 6.300781 -15.082031 7.296875 -15.265625 8.390625 -15.265625 C 9.859375 -15.265625 11.132812 -14.945312 12.21875 -14.3125 C 13.300781 -13.6875 14.140625 -12.796875 14.734375 -11.640625 C 15.335938 -10.484375 15.640625 -9.125 15.640625 -7.5625 C 15.640625 -6.375 15.46875 -5.300781 15.125 -4.34375 C 14.78125 -3.394531 14.289062 -2.578125 13.65625 -1.890625 C 13.019531 -1.210938 12.253906 -0.691406 11.359375 -0.328125 C 10.472656 0.0351562 9.484375 0.21875 8.390625 0.21875 Z M 8.390625 -2.140625 C 9.316406 -2.140625 10.101562 -2.351562 10.75 -2.78125 C 11.394531 -3.207031 11.890625 -3.828125 12.234375 -4.640625 C 12.585938 -5.453125 12.765625 -6.421875 12.765625 -7.546875 C 12.765625 -9.253906 12.382812 -10.578125 11.625 -11.515625 C 10.863281 -12.453125 9.785156 -12.921875 8.390625 -12.921875 C 7.484375 -12.921875 6.703125 -12.707031 6.046875 -12.28125 C 5.390625 -11.863281 4.882812 -11.253906 4.53125 -10.453125 C 4.1875 -9.648438 4.015625 -8.679688 4.015625 -7.546875 C 4.015625 -5.847656 4.398438 -4.519531 5.171875 -3.5625 C 5.941406 -2.613281 7.015625 -2.140625 8.390625 -2.140625 Z M 8.390625 -2.140625 "/></g></g></g><g fill="#ffffff" fill-opacity="1"><g transform="translate(1.166156, 107.955987)"><g><path d="M 3.015625 0.171875 C 2.566406 0.171875 2.222656 0.046875 1.984375 -0.203125 C 1.753906 -0.453125 1.640625 -0.796875 1.640625 -1.234375 L 1.640625 -13.671875 C 1.640625 -14.128906 1.757812 -14.472656 2 -14.703125 C 2.25 -14.941406 2.59375 -15.0625 3.03125 -15.0625 L 8.1875 -15.0625 C 9.832031 -15.0625 11.101562 -14.664062 12 -13.875 C 12.894531 -13.082031 13.34375 -11.972656 13.34375 -10.546875 C 13.34375 -9.617188 13.140625 -8.820312 12.734375 -8.15625 C 12.328125 -7.488281 11.738281 -6.976562 10.96875 -6.625 C 10.207031 -6.269531 9.28125 -6.09375 8.1875 -6.09375 L 8.375 -6.40625 L 9.078125 -6.40625 C 9.660156 -6.40625 10.164062 -6.257812 10.59375 -5.96875 C 11.03125 -5.6875 11.414062 -5.242188 11.75 -4.640625 L 13.34375 -1.671875 C 13.519531 -1.367188 13.597656 -1.070312 13.578125 -0.78125 C 13.566406 -0.5 13.460938 -0.269531 13.265625 -0.09375 C 13.066406 0.0820312 12.773438 0.171875 12.390625 0.171875 C 12.003906 0.171875 11.6875 0.0859375 11.4375 -0.078125 C 11.195312 -0.242188 10.988281 -0.492188 10.8125 -0.828125 L 8.65625 -4.8125 C 8.394531 -5.289062 8.085938 -5.609375 7.734375 -5.765625 C 7.390625 -5.929688 6.945312 -6.015625 6.40625 -6.015625 L 4.375 -6.015625 L 4.375 -1.234375 C 4.375 -0.796875 4.257812 -0.453125 4.03125 -0.203125 C 3.800781 0.046875 3.460938 0.171875 3.015625 0.171875 Z M 4.375 -8.046875 L 7.703125 -8.046875 C 8.691406 -8.046875 9.4375 -8.25 9.9375 -8.65625 C 10.445312 -9.0625 10.703125 -9.671875 10.703125 -10.484375 C 10.703125 -11.285156 10.445312 -11.890625 9.9375 -12.296875 C 9.4375 -12.703125 8.691406 -12.90625 7.703125 -12.90625 L 4.375 -12.90625 Z M 4.375 -8.046875 "/></g></g></g><g fill="#ffffff" fill-opacity="1"><g transform="translate(0.355451, 129.320455)"><g><path d="M 3.09375 0 C 2.625 0 2.265625 -0.125 2.015625 -0.375 C 1.765625 -0.625 1.640625 -0.984375 1.640625 -1.453125 L 1.640625 -13.609375 C 1.640625 -14.078125 1.765625 -14.4375 2.015625 -14.6875 C 2.265625 -14.9375 2.625 -15.0625 3.09375 -15.0625 L 7.234375 -15.0625 C 9.753906 -15.0625 11.703125 -14.410156 13.078125 -13.109375 C 14.453125 -11.816406 15.140625 -9.960938 15.140625 -7.546875 C 15.140625 -6.328125 14.960938 -5.25 14.609375 -4.3125 C 14.265625 -3.382812 13.753906 -2.597656 13.078125 -1.953125 C 12.398438 -1.316406 11.570312 -0.832031 10.59375 -0.5 C 9.625 -0.164062 8.503906 0 7.234375 0 Z M 4.375 -2.265625 L 7.0625 -2.265625 C 7.945312 -2.265625 8.710938 -2.375 9.359375 -2.59375 C 10.015625 -2.8125 10.554688 -3.140625 10.984375 -3.578125 C 11.421875 -4.015625 11.742188 -4.5625 11.953125 -5.21875 C 12.171875 -5.882812 12.28125 -6.660156 12.28125 -7.546875 C 12.28125 -9.304688 11.84375 -10.617188 10.96875 -11.484375 C 10.101562 -12.359375 8.800781 -12.796875 7.0625 -12.796875 L 4.375 -12.796875 Z M 4.375 -2.265625 "/></g></g></g><g fill="#ffffff" fill-opacity="1"><g transform="translate(0.355451, 172.049389)"><g><path d="M 3.09375 0 C 2.625 0 2.265625 -0.125 2.015625 -0.375 C 1.765625 -0.625 1.640625 -0.984375 1.640625 -1.453125 L 1.640625 -13.609375 C 1.640625 -14.078125 1.765625 -14.4375 2.015625 -14.6875 C 2.265625 -14.9375 2.625 -15.0625 3.09375 -15.0625 L 7.234375 -15.0625 C 9.753906 -15.0625 11.703125 -14.410156 13.078125 -13.109375 C 14.453125 -11.816406 15.140625 -9.960938 15.140625 -7.546875 C 15.140625 -6.328125 14.960938 -5.25 14.609375 -4.3125 C 14.265625 -3.382812 13.753906 -2.597656 13.078125 -1.953125 C 12.398438 -1.316406 11.570312 -0.832031 10.59375 -0.5 C 9.625 -0.164062 8.503906 0 7.234375 0 Z M 4.375 -2.265625 L 7.0625 -2.265625 C 7.945312 -2.265625 8.710938 -2.375 9.359375 -2.59375 C 10.015625 -2.8125 10.554688 -3.140625 10.984375 -3.578125 C 11.421875 -4.015625 11.742188 -4.5625 11.953125 -5.21875 C 12.171875 -5.882812 12.28125 -6.660156 12.28125 -7.546875 C 12.28125 -9.304688 11.84375 -10.617188 10.96875 -11.484375 C 10.101562 -12.359375 8.800781 -12.796875 7.0625 -12.796875 L 4.375 -12.796875 Z M 4.375 -2.265625 "/></g></g></g><g fill="#ffffff" fill-opacity="1"><g transform="translate(2.119927, 193.413857)"><g><path d="M 3.09375 0 C 2.625 0 2.265625 -0.125 2.015625 -0.375 C 1.765625 -0.625 1.640625 -0.984375 1.640625 -1.453125 L 1.640625 -13.609375 C 1.640625 -14.078125 1.765625 -14.4375 2.015625 -14.6875 C 2.265625 -14.9375 2.625 -15.0625 3.09375 -15.0625 L 10.71875 -15.0625 C 11.070312 -15.0625 11.34375 -14.96875 11.53125 -14.78125 C 11.726562 -14.59375 11.828125 -14.328125 11.828125 -13.984375 C 11.828125 -13.628906 11.726562 -13.351562 11.53125 -13.15625 C 11.34375 -12.96875 11.070312 -12.875 10.71875 -12.875 L 4.265625 -12.875 L 4.265625 -8.734375 L 10.25 -8.734375 C 10.625 -8.734375 10.898438 -8.640625 11.078125 -8.453125 C 11.265625 -8.273438 11.359375 -8.003906 11.359375 -7.640625 C 11.359375 -7.285156 11.265625 -7.015625 11.078125 -6.828125 C 10.898438 -6.648438 10.625 -6.5625 10.25 -6.5625 L 4.265625 -6.5625 L 4.265625 -2.171875 L 10.71875 -2.171875 C 11.070312 -2.171875 11.34375 -2.078125 11.53125 -1.890625 C 11.726562 -1.710938 11.828125 -1.445312 11.828125 -1.09375 C 11.828125 -0.738281 11.726562 -0.46875 11.53125 -0.28125 C 11.34375 -0.09375 11.070312 0 10.71875 0 Z M 3.09375 0 "/></g></g></g><g fill="#ffffff" fill-opacity="1"><g transform="translate(1.863601, 214.778324)"><g><path d="M 6.640625 0.171875 C 6.203125 0.171875 5.863281 0.046875 5.625 -0.203125 C 5.394531 -0.453125 5.28125 -0.796875 5.28125 -1.234375 L 5.28125 -12.765625 L 1.109375 -12.765625 C 0.742188 -12.765625 0.457031 -12.867188 0.25 -13.078125 C 0.0390625 -13.285156 -0.0625 -13.566406 -0.0625 -13.921875 C -0.0625 -14.296875 0.0390625 -14.578125 0.25 -14.765625 C 0.457031 -14.960938 0.742188 -15.0625 1.109375 -15.0625 L 12.171875 -15.0625 C 12.546875 -15.0625 12.832031 -14.960938 13.03125 -14.765625 C 13.238281 -14.578125 13.34375 -14.296875 13.34375 -13.921875 C 13.34375 -13.566406 13.238281 -13.285156 13.03125 -13.078125 C 12.832031 -12.867188 12.546875 -12.765625 12.171875 -12.765625 L 8.015625 -12.765625 L 8.015625 -1.234375 C 8.015625 -0.796875 7.898438 -0.453125 7.671875 -0.203125 C 7.441406 0.046875 7.097656 0.171875 6.640625 0.171875 Z M 6.640625 0.171875 "/></g></g></g><g fill="#ffffff" fill-opacity="1"><g transform="translate(0.546205, 236.142791)"><g><path d="M 1.796875 0.171875 C 1.453125 0.171875 1.175781 0.09375 0.96875 -0.0625 C 0.757812 -0.21875 0.632812 -0.425781 0.59375 -0.6875 C 0.550781 -0.957031 0.601562 -1.253906 0.75 -1.578125 L 6.390625 -14.078125 C 6.578125 -14.484375 6.800781 -14.773438 7.0625 -14.953125 C 7.320312 -15.140625 7.625 -15.234375 7.96875 -15.234375 C 8.289062 -15.234375 8.582031 -15.140625 8.84375 -14.953125 C 9.113281 -14.773438 9.34375 -14.484375 9.53125 -14.078125 L 15.1875 -1.578125 C 15.34375 -1.253906 15.398438 -0.957031 15.359375 -0.6875 C 15.316406 -0.414062 15.191406 -0.203125 14.984375 -0.046875 C 14.785156 0.0976562 14.523438 0.171875 14.203125 0.171875 C 13.804688 0.171875 13.492188 0.078125 13.265625 -0.109375 C 13.046875 -0.304688 12.851562 -0.601562 12.6875 -1 L 11.296875 -4.234375 L 12.453125 -3.484375 L 3.4375 -3.484375 L 4.59375 -4.234375 L 3.21875 -1 C 3.039062 -0.59375 2.847656 -0.296875 2.640625 -0.109375 C 2.441406 0.078125 2.160156 0.171875 1.796875 0.171875 Z M 7.921875 -12.09375 L 4.9375 -4.984375 L 4.375 -5.65625 L 11.515625 -5.65625 L 10.984375 -4.984375 L 7.96875 -12.09375 Z M 7.921875 -12.09375 "/></g></g></g><g fill="#ffffff" fill-opacity="1"><g transform="translate(5.481969, 257.507259)"><g><path d="M 3.015625 0.171875 C 2.566406 0.171875 2.222656 0.046875 1.984375 -0.203125 C 1.753906 -0.453125 1.640625 -0.796875 1.640625 -1.234375 L 1.640625 -13.8125 C 1.640625 -14.269531 1.753906 -14.617188 1.984375 -14.859375 C 2.222656 -15.109375 2.566406 -15.234375 3.015625 -15.234375 C 3.453125 -15.234375 3.785156 -15.109375 4.015625 -14.859375 C 4.253906 -14.617188 4.375 -14.269531 4.375 -13.8125 L 4.375 -1.234375 C 4.375 -0.796875 4.257812 -0.453125 4.03125 -0.203125 C 3.800781 0.046875 3.460938 0.171875 3.015625 0.171875 Z M 3.015625 0.171875 "/></g></g></g><g fill="#ffffff" fill-opacity="1"><g transform="translate(2.489513, 278.871726)"><g><path d="M 3.03125 0 C 2.59375 0 2.25 -0.125 2 -0.375 C 1.757812 -0.625 1.640625 -0.96875 1.640625 -1.40625 L 1.640625 -13.734375 C 1.640625 -14.191406 1.753906 -14.535156 1.984375 -14.765625 C 2.222656 -15.003906 2.566406 -15.125 3.015625 -15.125 C 3.453125 -15.125 3.785156 -15.003906 4.015625 -14.765625 C 4.253906 -14.535156 4.375 -14.191406 4.375 -13.734375 L 4.375 -2.328125 L 10.578125 -2.328125 C 10.960938 -2.328125 11.253906 -2.226562 11.453125 -2.03125 C 11.660156 -1.832031 11.765625 -1.546875 11.765625 -1.171875 C 11.765625 -0.804688 11.660156 -0.519531 11.453125 -0.3125 C 11.253906 -0.101562 10.960938 0 10.578125 0 Z M 3.03125 0 "/></g></g></g><g fill="#ffffff" fill-opacity="1"><g transform="translate(1.756302, 300.236193)"><g><path d="M 6.828125 0.21875 C 6.203125 0.21875 5.578125 0.171875 4.953125 0.078125 C 4.328125 -0.015625 3.734375 -0.15625 3.171875 -0.34375 C 2.617188 -0.539062 2.125 -0.78125 1.6875 -1.0625 C 1.425781 -1.238281 1.242188 -1.445312 1.140625 -1.6875 C 1.046875 -1.925781 1.015625 -2.160156 1.046875 -2.390625 C 1.085938 -2.628906 1.179688 -2.835938 1.328125 -3.015625 C 1.484375 -3.203125 1.675781 -3.316406 1.90625 -3.359375 C 2.132812 -3.398438 2.382812 -3.332031 2.65625 -3.15625 C 3.28125 -2.789062 3.941406 -2.519531 4.640625 -2.34375 C 5.335938 -2.175781 6.066406 -2.09375 6.828125 -2.09375 C 7.953125 -2.09375 8.769531 -2.28125 9.28125 -2.65625 C 9.800781 -3.03125 10.0625 -3.519531 10.0625 -4.125 C 10.0625 -4.625 9.878906 -5.015625 9.515625 -5.296875 C 9.148438 -5.578125 8.523438 -5.8125 7.640625 -6 L 5.296875 -6.5 C 3.941406 -6.78125 2.929688 -7.257812 2.265625 -7.9375 C 1.609375 -8.613281 1.28125 -9.503906 1.28125 -10.609375 C 1.28125 -11.304688 1.421875 -11.941406 1.703125 -12.515625 C 1.992188 -13.085938 2.394531 -13.578125 2.90625 -13.984375 C 3.425781 -14.398438 4.046875 -14.71875 4.765625 -14.9375 C 5.492188 -15.15625 6.289062 -15.265625 7.15625 -15.265625 C 8.007812 -15.265625 8.820312 -15.15625 9.59375 -14.9375 C 10.363281 -14.726562 11.050781 -14.421875 11.65625 -14.015625 C 11.882812 -13.859375 12.035156 -13.664062 12.109375 -13.4375 C 12.191406 -13.207031 12.210938 -12.984375 12.171875 -12.765625 C 12.128906 -12.546875 12.03125 -12.359375 11.875 -12.203125 C 11.71875 -12.046875 11.519531 -11.953125 11.28125 -11.921875 C 11.050781 -11.890625 10.785156 -11.957031 10.484375 -12.125 C 9.960938 -12.425781 9.429688 -12.640625 8.890625 -12.765625 C 8.347656 -12.898438 7.765625 -12.96875 7.140625 -12.96875 C 6.484375 -12.96875 5.914062 -12.875 5.4375 -12.6875 C 4.96875 -12.5 4.609375 -12.238281 4.359375 -11.90625 C 4.117188 -11.570312 4 -11.175781 4 -10.71875 C 4 -10.207031 4.164062 -9.796875 4.5 -9.484375 C 4.84375 -9.179688 5.429688 -8.945312 6.265625 -8.78125 L 8.59375 -8.28125 C 10 -7.988281 11.046875 -7.519531 11.734375 -6.875 C 12.421875 -6.238281 12.765625 -5.382812 12.765625 -4.3125 C 12.765625 -3.632812 12.625 -3.015625 12.34375 -2.453125 C 12.070312 -1.898438 11.675781 -1.421875 11.15625 -1.015625 C 10.632812 -0.617188 10.007812 -0.3125 9.28125 -0.09375 C 8.5625 0.113281 7.742188 0.21875 6.828125 0.21875 Z M 6.828125 0.21875 "/></g></g></g></g></g></svg>