<svg xmlns="http://www.w3.org/2000/svg" xmlns:xlink="http://www.w3.org/1999/xlink" width="500" zoomAndPan="magnify" viewBox="0 0 375 374.999991" height="500" preserveAspectRatio="xMidYMid meet" version="1.0"><defs><g/><clipPath id="a0826b621a"><rect x="0" width="25" y="0" height="307"/></clipPath></defs><g transform="matrix(1, 0, 0, 1, 175, 34)"><g clip-path="url(#a0826b621a)"><g fill="#ffffff" fill-opacity="1"><g transform="translate(0.451863, 33.416056)"><g><path d="M 12.078125 0.328125 C 10.484375 0.328125 9.082031 0.125 7.875 -0.28125 C 6.675781 -0.695312 5.660156 -1.3125 4.828125 -2.125 C 4.003906 -2.945312 3.382812 -3.96875 2.96875 -5.1875 C 2.550781 -6.40625 2.34375 -7.820312 2.34375 -9.4375 L 2.34375 -21.15625 C 2.34375 -21.875 2.519531 -22.40625 2.875 -22.75 C 3.238281 -23.09375 3.757812 -23.265625 4.4375 -23.265625 C 5.113281 -23.265625 5.628906 -23.09375 5.984375 -22.75 C 6.347656 -22.40625 6.53125 -21.875 6.53125 -21.15625 L 6.53125 -9.46875 C 6.53125 -7.394531 7.003906 -5.84375 7.953125 -4.8125 C 8.898438 -3.78125 10.273438 -3.265625 12.078125 -3.265625 C 13.878906 -3.265625 15.25 -3.78125 16.1875 -4.8125 C 17.125 -5.84375 17.59375 -7.394531 17.59375 -9.46875 L 17.59375 -21.15625 C 17.59375 -21.875 17.769531 -22.40625 18.125 -22.75 C 18.488281 -23.09375 19.007812 -23.265625 19.6875 -23.265625 C 20.332031 -23.265625 20.832031 -23.09375 21.1875 -22.75 C 21.550781 -22.40625 21.734375 -21.875 21.734375 -21.15625 L 21.734375 -9.4375 C 21.734375 -7.300781 21.367188 -5.503906 20.640625 -4.046875 C 19.910156 -2.585938 18.828125 -1.492188 17.390625 -0.765625 C 15.960938 -0.0351562 14.191406 0.328125 12.078125 0.328125 Z M 12.078125 0.328125 "/></g></g></g><g fill="#ffffff" fill-opacity="1"><g transform="translate(2.3555, 66.060233)"><g><path d="M 10.15625 0.265625 C 9.476562 0.265625 8.957031 0.078125 8.59375 -0.296875 C 8.238281 -0.679688 8.0625 -1.210938 8.0625 -1.890625 L 8.0625 -19.515625 L 1.703125 -19.515625 C 1.128906 -19.515625 0.6875 -19.671875 0.375 -19.984375 C 0.0625 -20.304688 -0.09375 -20.738281 -0.09375 -21.28125 C -0.09375 -21.84375 0.0625 -22.269531 0.375 -22.5625 C 0.6875 -22.863281 1.128906 -23.015625 1.703125 -23.015625 L 18.609375 -23.015625 C 19.171875 -23.015625 19.609375 -22.863281 19.921875 -22.5625 C 20.242188 -22.269531 20.40625 -21.84375 20.40625 -21.28125 C 20.40625 -20.738281 20.242188 -20.304688 19.921875 -19.984375 C 19.609375 -19.671875 19.171875 -19.515625 18.609375 -19.515625 L 12.234375 -19.515625 L 12.234375 -1.890625 C 12.234375 -1.210938 12.0625 -0.679688 11.71875 -0.296875 C 11.375 0.078125 10.851562 0.265625 10.15625 0.265625 Z M 10.15625 0.265625 "/></g></g></g><g fill="#ffffff" fill-opacity="1"><g transform="translate(7.893351, 98.704411)"><g><path d="M 4.609375 0.265625 C 3.929688 0.265625 3.410156 0.078125 3.046875 -0.296875 C 2.691406 -0.679688 2.515625 -1.210938 2.515625 -1.890625 L 2.515625 -21.125 C 2.515625 -21.8125 2.691406 -22.335938 3.046875 -22.703125 C 3.410156 -23.078125 3.929688 -23.265625 4.609375 -23.265625 C 5.273438 -23.265625 5.785156 -23.078125 6.140625 -22.703125 C 6.503906 -22.335938 6.6875 -21.8125 6.6875 -21.125 L 6.6875 -1.890625 C 6.6875 -1.210938 6.507812 -0.679688 6.15625 -0.296875 C 5.8125 0.078125 5.296875 0.265625 4.609375 0.265625 Z M 4.609375 0.265625 "/></g></g></g><g fill="#ffffff" fill-opacity="1"><g transform="translate(3.320981, 131.348588)"><g><path d="M 4.640625 0 C 3.960938 0 3.4375 -0.1875 3.0625 -0.5625 C 2.695312 -0.945312 2.515625 -1.476562 2.515625 -2.15625 L 2.515625 -20.984375 C 2.515625 -21.679688 2.691406 -22.207031 3.046875 -22.5625 C 3.410156 -22.925781 3.929688 -23.109375 4.609375 -23.109375 C 5.273438 -23.109375 5.785156 -22.925781 6.140625 -22.5625 C 6.503906 -22.207031 6.6875 -21.679688 6.6875 -20.984375 L 6.6875 -3.5625 L 16.15625 -3.5625 C 16.738281 -3.5625 17.1875 -3.40625 17.5 -3.09375 C 17.820312 -2.789062 17.984375 -2.359375 17.984375 -1.796875 C 17.984375 -1.234375 17.820312 -0.789062 17.5 -0.46875 C 17.1875 -0.15625 16.738281 0 16.15625 0 Z M 4.640625 0 "/></g></g></g><g fill="#ffffff" fill-opacity="1"><g transform="translate(7.893351, 163.992765)"><g><path d="M 4.609375 0.265625 C 3.929688 0.265625 3.410156 0.078125 3.046875 -0.296875 C 2.691406 -0.679688 2.515625 -1.210938 2.515625 -1.890625 L 2.515625 -21.125 C 2.515625 -21.8125 2.691406 -22.335938 3.046875 -22.703125 C 3.410156 -23.078125 3.929688 -23.265625 4.609375 -23.265625 C 5.273438 -23.265625 5.785156 -23.078125 6.140625 -22.703125 C 6.503906 -22.335938 6.6875 -21.8125 6.6875 -21.125 L 6.6875 -1.890625 C 6.6875 -1.210938 6.507812 -0.679688 6.15625 -0.296875 C 5.8125 0.078125 5.296875 0.265625 4.609375 0.265625 Z M 4.609375 0.265625 "/></g></g></g><g fill="#ffffff" fill-opacity="1"><g transform="translate(2.3555, 196.636942)"><g><path d="M 10.15625 0.265625 C 9.476562 0.265625 8.957031 0.078125 8.59375 -0.296875 C 8.238281 -0.679688 8.0625 -1.210938 8.0625 -1.890625 L 8.0625 -19.515625 L 1.703125 -19.515625 C 1.128906 -19.515625 0.6875 -19.671875 0.375 -19.984375 C 0.0625 -20.304688 -0.09375 -20.738281 -0.09375 -21.28125 C -0.09375 -21.84375 0.0625 -22.269531 0.375 -22.5625 C 0.6875 -22.863281 1.128906 -23.015625 1.703125 -23.015625 L 18.609375 -23.015625 C 19.171875 -23.015625 19.609375 -22.863281 19.921875 -22.5625 C 20.242188 -22.269531 20.40625 -21.84375 20.40625 -21.28125 C 20.40625 -20.738281 20.242188 -20.304688 19.921875 -19.984375 C 19.609375 -19.671875 19.171875 -19.515625 18.609375 -19.515625 L 12.234375 -19.515625 L 12.234375 -1.890625 C 12.234375 -1.210938 12.0625 -0.679688 11.71875 -0.296875 C 11.375 0.078125 10.851562 0.265625 10.15625 0.265625 Z M 10.15625 0.265625 "/></g></g></g><g fill="#ffffff" fill-opacity="1"><g transform="translate(7.893351, 229.28112)"><g><path d="M 4.609375 0.265625 C 3.929688 0.265625 3.410156 0.078125 3.046875 -0.296875 C 2.691406 -0.679688 2.515625 -1.210938 2.515625 -1.890625 L 2.515625 -21.125 C 2.515625 -21.8125 2.691406 -22.335938 3.046875 -22.703125 C 3.410156 -23.078125 3.929688 -23.265625 4.609375 -23.265625 C 5.273438 -23.265625 5.785156 -23.078125 6.140625 -22.703125 C 6.503906 -22.335938 6.6875 -21.8125 6.6875 -21.125 L 6.6875 -1.890625 C 6.6875 -1.210938 6.507812 -0.679688 6.15625 -0.296875 C 5.8125 0.078125 5.296875 0.265625 4.609375 0.265625 Z M 4.609375 0.265625 "/></g></g></g><g fill="#ffffff" fill-opacity="1"><g transform="translate(2.747157, 261.925297)"><g><path d="M 4.734375 0 C 4.015625 0 3.460938 -0.1875 3.078125 -0.5625 C 2.703125 -0.945312 2.515625 -1.5 2.515625 -2.21875 L 2.515625 -20.796875 C 2.515625 -21.515625 2.703125 -22.0625 3.078125 -22.4375 C 3.460938 -22.820312 4.015625 -23.015625 4.734375 -23.015625 L 16.390625 -23.015625 C 16.929688 -23.015625 17.347656 -22.867188 17.640625 -22.578125 C 17.929688 -22.296875 18.078125 -21.894531 18.078125 -21.375 C 18.078125 -20.832031 17.929688 -20.414062 17.640625 -20.125 C 17.347656 -19.832031 16.929688 -19.6875 16.390625 -19.6875 L 6.53125 -19.6875 L 6.53125 -13.34375 L 15.671875 -13.34375 C 16.234375 -13.34375 16.65625 -13.203125 16.9375 -12.921875 C 17.21875 -12.640625 17.359375 -12.226562 17.359375 -11.6875 C 17.359375 -11.144531 17.21875 -10.726562 16.9375 -10.4375 C 16.65625 -10.15625 16.234375 -10.015625 15.671875 -10.015625 L 6.53125 -10.015625 L 6.53125 -3.328125 L 16.390625 -3.328125 C 16.929688 -3.328125 17.347656 -3.1875 17.640625 -2.90625 C 17.929688 -2.625 18.078125 -2.210938 18.078125 -1.671875 C 18.078125 -1.117188 17.929688 -0.703125 17.640625 -0.421875 C 17.347656 -0.140625 16.929688 0 16.390625 0 Z M 4.734375 0 "/></g></g></g><g fill="#ffffff" fill-opacity="1"><g transform="translate(2.19155, 294.569474)"><g><path d="M 10.4375 0.328125 C 9.488281 0.328125 8.535156 0.253906 7.578125 0.109375 C 6.617188 -0.0234375 5.710938 -0.238281 4.859375 -0.53125 C 4.015625 -0.832031 3.253906 -1.195312 2.578125 -1.625 C 2.179688 -1.894531 1.90625 -2.210938 1.75 -2.578125 C 1.601562 -2.953125 1.554688 -3.316406 1.609375 -3.671875 C 1.671875 -4.023438 1.8125 -4.335938 2.03125 -4.609375 C 2.257812 -4.890625 2.546875 -5.0625 2.890625 -5.125 C 3.242188 -5.1875 3.628906 -5.085938 4.046875 -4.828125 C 5.003906 -4.265625 6.015625 -3.851562 7.078125 -3.59375 C 8.148438 -3.332031 9.269531 -3.203125 10.4375 -3.203125 C 12.164062 -3.203125 13.421875 -3.488281 14.203125 -4.0625 C 14.984375 -4.632812 15.375 -5.378906 15.375 -6.296875 C 15.375 -7.054688 15.09375 -7.65625 14.53125 -8.09375 C 13.976562 -8.53125 13.03125 -8.890625 11.6875 -9.171875 L 8.09375 -9.921875 C 6.03125 -10.359375 4.488281 -11.09375 3.46875 -12.125 C 2.457031 -13.15625 1.953125 -14.519531 1.953125 -16.21875 C 1.953125 -17.289062 2.171875 -18.257812 2.609375 -19.125 C 3.046875 -20 3.660156 -20.75 4.453125 -21.375 C 5.242188 -22.007812 6.1875 -22.492188 7.28125 -22.828125 C 8.382812 -23.171875 9.601562 -23.34375 10.9375 -23.34375 C 12.238281 -23.34375 13.476562 -23.175781 14.65625 -22.84375 C 15.832031 -22.519531 16.890625 -22.039062 17.828125 -21.40625 C 18.171875 -21.164062 18.398438 -20.875 18.515625 -20.53125 C 18.640625 -20.1875 18.664062 -19.84375 18.59375 -19.5 C 18.53125 -19.164062 18.378906 -18.878906 18.140625 -18.640625 C 17.910156 -18.398438 17.613281 -18.253906 17.25 -18.203125 C 16.894531 -18.160156 16.488281 -18.273438 16.03125 -18.546875 C 15.21875 -18.992188 14.398438 -19.316406 13.578125 -19.515625 C 12.753906 -19.710938 11.863281 -19.8125 10.90625 -19.8125 C 9.90625 -19.8125 9.046875 -19.671875 8.328125 -19.390625 C 7.609375 -19.109375 7.054688 -18.710938 6.671875 -18.203125 C 6.296875 -17.691406 6.109375 -17.085938 6.109375 -16.390625 C 6.109375 -15.597656 6.367188 -14.96875 6.890625 -14.5 C 7.410156 -14.039062 8.300781 -13.679688 9.5625 -13.421875 L 13.125 -12.671875 C 15.28125 -12.210938 16.882812 -11.492188 17.9375 -10.515625 C 18.988281 -9.535156 19.515625 -8.226562 19.515625 -6.59375 C 19.515625 -5.550781 19.300781 -4.601562 18.875 -3.75 C 18.457031 -2.90625 17.847656 -2.175781 17.046875 -1.5625 C 16.253906 -0.957031 15.300781 -0.488281 14.1875 -0.15625 C 13.082031 0.164062 11.832031 0.328125 10.4375 0.328125 Z M 10.4375 0.328125 "/></g></g></g></g></g></svg>